_______ Visit us at our Semi Public Bittorrent Community ________
  
http://p2pdl.com  _____________________________  http://p2pdl.com


Phantom 2013 BRRip 480p x264 AAC - VYTO


Genre: Thriller
Plot: The haunted Captain of a Soviet submarine holds the fate of the world in his hands.
Forced to leave his family behind, he is charged with leading a covert mission cloaked in
mystery.   
Director: Todd Robinson
Stars:  Ed Harris, David Duchovny, William Fichtner.
Rated: R for violence.


Info: 
http://www.imdb.com/title/tt1922685/

Trailer:


Format                         : MPEG-4
File size                      : 311 MiB
Duration                       : 1h 38mn
Overall bit rate               : 442 Kbps
Source                         : 720p.BluRay.x264-iNFAMOUS

Video
Format                         : AVC
Width                          : 720 pixels
Height                         : 304 pixels
Display aspect ratio           : 2.35:1
Frame rate mode                : Constant
Frame rate                     : 23.976 fps
Stream size                    : 281 MiB (90%)
Writing library                : x264 core 130 r2273
Audio
Format                         : AAC
Bit rate mode                  : Variable
Bit rate                       : 40.0 Kbps
Channel(s)                     : 2 channels
Channel positions              : Front: L R
Sampling rate                  : 48.0 KHz
Stream size                    : 28.2 MiB (9%)
Language                       : English

Subtitle                       : Yes(English)

 
http://ultraimg.com/images/30aFZ.png 
http://ultraimg.com/images/8mwPM.png 
http://ultraimg.com/images/bMZT.png 
http://ultraimg.com/images/nYwE7.png 
http://ultraimg.com/images/BAwVb.png 
http://ultraimg.com/images/0piVk.png 
http://ultraimg.com/images/3K40v.png 
http://ultraimg.com/images/2VLKI.png


----------------------------------------------------------------------------------------------------


Encoded using revolutionary 10bit encoding, which enables us to provide you more crispier 
and sharper images at small sizes, just make sure you follow our instructions without a fault.
Recommend to you to use latest version of VLC player. Install K-Lite Codec Pack or shark007 codecs
in case of any kind of problem in playback (For non-VLC Media Player users). Alternatively, install
Core AVC codecs, the fastest decoder that there is coupled with Community Center Codec Pack and play
on Windows Media Player Classic. Check sample to be sure.
Enjoy!

Encoder Notes:Looking For Early Access To Anything You Can Provide DVDScr, R5, DVDR, BluRay, Direct
Audio, Music Releases and Seedboxes. We require dedicated servers, so as to do more 
and fast releases of movies.
If You Got anything to offer please contact us at "contact@p2pdl.com".

Face book Fan Page:   
http://fbl.me/BC